<?xml version="1.0" encoding="utf-8"?>
<!-- Generator: Adobe Illustrator 15.0.0, SVG Export Plug-In . SVG Version: 6.00 Build 0)  -->
<!DOCTYPE svg PUBLIC "-//W3C//DTD SVG 1.1//EN" "http://www.w3.org/Graphics/SVG/1.1/DTD/svg11.dtd">
<svg version="1.1" id="Layer_1" xmlns="http://www.w3.org/2000/svg" xmlns:xlink="http://www.w3.org/1999/xlink" x="0px" y="0px"
	 width="376.296px" height="323.748px" viewBox="0 0 376.296 323.748" enable-background="new 0 0 376.296 323.748"
	 xml:space="preserve">
<path id="Path_596" fill="#E6E9EE" d="M300,269.122c1.572,1.023,2.563,2.736,2.662,4.609c-0.006,1.699-1.201,2.388-2.68,1.535
	l-24.271-14.013c-1.575-1.024-2.564-2.741-2.662-4.618c0.006-1.693,1.207-2.379,2.68-1.527L300,269.122z"/>
<g id="Group_376">
	<g>
		<defs>
			<rect id="SVGID_1_" y="91.428" width="51.189" height="103.728"/>
		</defs>
		<clipPath id="SVGID_2_">
			<use xlink:href="#SVGID_1_"  overflow="visible"/>
		</clipPath>
		<g id="Group_375" clip-path="url(#SVGID_2_)">
			<path id="Path_597" fill="none" d="M2.925,116.107c-1.729,1.132-2.815,3.02-2.925,5.083l0.2,69.028c0.012,4.4,3.139,6.2,6.949,4
				l41.119-23.74c1.729-1.131,2.815-3.02,2.925-5.082l-0.195-69.029c-0.013-4.4-3.14-6.2-6.949-4L2.925,116.107z"/>
		</g>
	</g>
</g>
<path id="Path_598" fill="#FFEEC5" d="M9.234,141.123c-0.514,0.334-0.837,0.893-0.871,1.505l0.011,3.665
	c0,0.556,0.393,0.779,0.876,0.5l33.528-19.357c0.515-0.334,0.838-0.895,0.871-1.508l-0.011-3.666c0-0.552-0.393-0.775-0.876-0.5
	L9.234,141.123z"/>
<path id="Path_599" fill="#FFEEC5" d="M9.257,149.1c-0.515,0.334-0.839,0.895-0.871,1.508l0.01,3.666
	c0,0.555,0.394,0.774,0.877,0.495L42.8,135.414c0.514-0.332,0.838-0.89,0.872-1.5l-0.011-3.666c0-0.555-0.394-0.778-0.877-0.5
	L9.257,149.1z"/>
<path id="Path_600" fill="#F7D98F" d="M22.345,155.042c-1.22,0.793-1.987,2.121-2.063,3.574v0.842c0,1.314,0.933,1.844,2.077,1.183
	L33.2,154.38c1.222-0.792,1.99-2.121,2.067-3.575v-0.842c0-1.311-0.936-1.842-2.08-1.182L22.345,155.042z"/>
<g id="Group_379" transform="translate(-491 1681)">
	<g>
		<defs>
			<path id="SVGID_3_" d="M631.317-1681c-0.182,0-0.361,0.01-0.536,0.026c-0.202,0.019-0.402,0.047-0.6,0.087
				c-0.005,0-0.009,0-0.014,0l-0.018,0.006c-0.234,0.046-0.465,0.109-0.691,0.189c-0.29,0.104-0.57,0.233-0.837,0.387l-6.859,3.987
				c0.473-0.273,0.988-0.468,1.524-0.576l0.021-0.007c0.574-0.111,1.16-0.141,1.742-0.088l0.048,0.005
				c0.651,0.063,1.292,0.204,1.911,0.417l0.03,0.01c0.725,0.253,1.424,0.575,2.087,0.962l187.548,108.567l6.859-3.987
				l-187.544-108.564c-0.11-0.064-0.22-0.125-0.33-0.184c-0.141-0.078-0.284-0.151-0.424-0.22c-0.14-0.069-0.28-0.136-0.42-0.2
				s-0.277-0.117-0.415-0.174c-0.138-0.057-0.28-0.108-0.418-0.157c-0.027-0.01-0.053-0.017-0.08-0.026l-0.031-0.01
				c-0.1-0.034-0.2-0.069-0.3-0.1c-0.143-0.043-0.286-0.082-0.427-0.118s-0.285-0.066-0.424-0.094
				c-0.139-0.028-0.3-0.054-0.454-0.075c-0.1-0.013-0.2-0.021-0.3-0.031c-0.016,0-0.031,0-0.046,0c-0.037,0-0.074-0.009-0.112-0.012
				C631.638-1681,631.477-1681,631.317-1681z"/>
		</defs>
		<use xlink:href="#SVGID_3_"  overflow="visible" fill="#BFBFBF"/>
		<clipPath id="SVGID_4_">
			<use xlink:href="#SVGID_3_"  overflow="visible"/>
		</clipPath>
		<g id="Group_378" clip-path="url(#SVGID_4_)">
			<path id="Path_601" fill="#BFBFBF" d="M838.599-1569.055l-18.654-138.611L606.7-1678.973l18.651,138.611L838.599-1569.055z"/>
		</g>
	</g>
</g>
<g id="Group_381" transform="translate(-491 1681)">
	<g>
		<defs>
			<path id="SVGID_5_" d="M820.751-1564.958c0.725,0.421,1.414,0.898,2.063,1.428l0.051,0.042c0.672,0.548,1.307,1.141,1.898,1.774
				l0.031,0.031c1.242,1.335,2.33,2.807,3.242,4.387c0.02,0.038,0.041,0.078,0.063,0.116c0.447,0.778,0.854,1.58,1.217,2.4
				c0.004,0.01,0.008,0.02,0.012,0.03c0.361,0.827,0.674,1.675,0.936,2.539c0.004,0.011,0.008,0.022,0.012,0.034
				c0.254,0.837,0.451,1.691,0.592,2.555v0.01c0.135,0.832,0.201,1.672,0.201,2.515l-0.367,130.931
				c0.002,0.748-0.068,1.495-0.211,2.229c-0.006,0.021-0.01,0.043-0.014,0.063c-0.123,0.628-0.32,1.239-0.584,1.822
				c-0.006,0.011-0.01,0.021-0.016,0.033c-0.209,0.43-0.471,0.832-0.775,1.201c-0.1,0.118-0.186,0.246-0.289,0.355
				c-0.33,0.363-0.711,0.678-1.131,0.932l6.861-3.986c0.42-0.254,0.801-0.567,1.131-0.933c0.1-0.108,0.191-0.233,0.287-0.354
				c0.131-0.146,0.256-0.301,0.373-0.461c0.143-0.229,0.273-0.465,0.391-0.709c0-0.01,0.01-0.021,0.014-0.032
				c0.006-0.011,0.01-0.022,0.014-0.031c0.078-0.169,0.154-0.342,0.221-0.522c0.068-0.18,0.127-0.357,0.182-0.545
				c0.055-0.188,0.1-0.349,0.139-0.529c0.016-0.073,0.029-0.151,0.045-0.229l0.012-0.063c0.018-0.072,0.031-0.145,0.045-0.217
				c0.027-0.161,0.055-0.325,0.074-0.494c0.02-0.17,0.037-0.329,0.051-0.5c0.016-0.172,0.023-0.323,0.031-0.488
				s0.01-0.332,0.012-0.5v-0.029l0.371-130.929c0-0.155,0-0.312-0.008-0.467c-0.008-0.155-0.012-0.334-0.023-0.5
				s-0.021-0.334-0.039-0.5s-0.033-0.337-0.057-0.507c-0.021-0.17-0.047-0.347-0.072-0.52v-0.015c0,0,0-0.007,0-0.011
				c-0.025-0.165-0.055-0.332-0.086-0.5c-0.033-0.181-0.068-0.36-0.109-0.541c-0.039-0.181-0.08-0.36-0.125-0.541
				s-0.094-0.367-0.146-0.55c-0.039-0.142-0.082-0.284-0.123-0.425c-0.006-0.012-0.008-0.023-0.012-0.034
				c-0.008-0.029-0.018-0.059-0.023-0.088c-0.057-0.178-0.111-0.357-0.172-0.535c-0.061-0.178-0.121-0.352-0.184-0.526
				c-0.063-0.174-0.125-0.339-0.189-0.506c-0.066-0.167-0.135-0.336-0.201-0.5c-0.055-0.129-0.109-0.257-0.166-0.385
				c-0.002-0.008-0.006-0.017-0.01-0.024c-0.012-0.029-0.023-0.058-0.035-0.087c-0.074-0.167-0.15-0.334-0.23-0.5
				c-0.078-0.166-0.172-0.363-0.264-0.543c-0.1-0.207-0.209-0.413-0.318-0.62s-0.244-0.438-0.369-0.655
				c-0.02-0.038-0.041-0.077-0.063-0.115c-0.023-0.038-0.053-0.092-0.078-0.138c-0.244-0.415-0.5-0.823-0.768-1.222
				c-0.211-0.317-0.43-0.628-0.654-0.932c-0.15-0.205-0.301-0.406-0.461-0.6c-0.129-0.167-0.264-0.331-0.4-0.493
				s-0.266-0.314-0.398-0.467c-0.135-0.153-0.268-0.3-0.4-0.447l-0.084-0.085c-0.01-0.01-0.02-0.02-0.029-0.031
				c-0.1-0.11-0.205-0.22-0.311-0.327c-0.145-0.146-0.289-0.289-0.438-0.431c-0.146-0.142-0.299-0.285-0.455-0.423
				c-0.154-0.138-0.299-0.271-0.461-0.4c-0.076-0.066-0.154-0.128-0.232-0.191c-0.018-0.014-0.033-0.029-0.053-0.043
				c-0.059-0.048-0.115-0.1-0.176-0.142c-0.148-0.119-0.299-0.234-0.453-0.348c-0.154-0.114-0.301-0.216-0.449-0.319
				c-0.15-0.103-0.295-0.2-0.439-0.291c-0.146-0.091-0.293-0.183-0.439-0.269c-0.033-0.02-0.066-0.04-0.1-0.059L820.751-1564.958z"
				/>
		</defs>
		<use xlink:href="#SVGID_5_"  overflow="visible" fill="#BFBFBF"/>
		<clipPath id="SVGID_6_">
			<use xlink:href="#SVGID_5_"  overflow="visible"/>
		</clipPath>
		<g id="Group_380" transform="translate(329.752 112.055)" clip-path="url(#SVGID_6_)">
			<rect id="Rectangle_369" x="490.999" y="-1681" fill="#BFBFBF" width="17.176" height="159.417"/>
		</g>
	</g>
</g>
<path id="Path_604" fill="#D5D1D1" d="M329.751,116.042c5.719,3.3,10.332,11.294,10.314,17.864l-0.371,130.928
	c-0.02,6.569-4.664,9.216-10.381,5.916L137.69,160.116c-5.717-3.3-10.332-11.294-10.313-17.864l0.371-130.928
	c0.019-6.57,4.663-9.217,10.381-5.916L329.751,116.042z"/>
<path id="Path_605" fill="#FFFFFF" d="M317.923,115.751c5.256,3.035,9.5,10.382,9.48,16.422l-0.34,120.362
	c-0.02,6.04-4.287,8.474-9.545,5.438L150.386,161.54c-5.256-3.035-9.5-10.383-9.482-16.422l0.342-120.363
	c0.017-6.039,4.287-8.473,9.543-5.438L317.923,115.751z"/>
<path id="Path_606" fill="#F9FBFC" d="M332.779,220.358L332.779,220.358c-0.773,0-1.4-0.626-1.4-1.399V177
	c-0.002-0.773,0.623-1.401,1.395-1.404c0.773-0.002,1.402,0.623,1.404,1.396c0,0.004,0,0.006,0,0.009v41.96
	c0,0.773-0.627,1.4-1.398,1.4"/>
<path id="Path_607" fill="#FFFFFF" d="M133.9,86.066c1.745,1.134,2.842,3.034,2.952,5.112c-0.006,1.879-1.336,2.638-2.971,1.693
	c-1.745-1.134-2.842-3.034-2.952-5.112C130.936,85.88,132.265,85.122,133.9,86.066"/>
<path id="Path_608" fill="#FFEEC5" d="M248.817,103.833c0.514,1.688,0.882,3.416,1.101,5.166c0.123,1.001,0.185,2.009,0.184,3.018
	c0,0.3-0.01,0.594-0.021,0.884c0,0.045,0,0.09-0.006,0.134c-0.015,0.275-0.034,0.545-0.059,0.81L250,114
	c-0.026,0.267-0.06,0.527-0.1,0.782c-0.053,0.348-0.1,0.6-0.145,0.838c-0.063,0.314-0.119,0.556-0.18,0.793
	c-0.012,0.041-0.021,0.082-0.031,0.122c-0.063,0.23-0.129,0.455-0.201,0.675c-0.012,0.041-0.025,0.08-0.039,0.12
	c-0.073,0.222-0.15,0.44-0.233,0.652c-0.1,0.264-0.192,0.463-0.282,0.657c-0.129,0.275-0.228,0.464-0.328,0.65
	c-0.02,0.035-0.039,0.071-0.061,0.107c-0.1,0.182-0.209,0.359-0.32,0.531l-0.055,0.081c-0.117,0.178-0.238,0.352-0.365,0.518
	s-0.265,0.329-0.4,0.483l-0.059,0.066c-0.131,0.146-0.267,0.286-0.406,0.42c-0.025,0.026-0.053,0.051-0.08,0.076
	c-0.139,0.132-0.282,0.259-0.43,0.38c-0.023,0.019-0.047,0.036-0.07,0.054c-0.146,0.119-0.299,0.231-0.452,0.338
	c-0.191,0.133-0.354,0.234-0.521,0.33l-0.095,0.055c-0.162,0.091-0.329,0.176-0.5,0.255l-0.101,0.049
	c-0.174,0.078-0.348,0.153-0.527,0.22c-0.148,0.053-0.242,0.08-0.336,0.11c-0.059-6.384-4.543-14.1-10.079-17.3
	c-5.591-3.228-10.138-0.638-10.153,5.777c0.008,0.014,0.161,0.27,0.459,0.724c-0.132-0.182-0.265-0.365-0.394-0.55
	c-0.25-0.363-0.42-0.615-0.587-0.87c-0.03-0.045-0.061-0.091-0.092-0.138c-0.178-0.272-0.352-0.546-0.521-0.824l-0.107-0.177
	c-0.174-0.285-0.347-0.571-0.514-0.86c-0.18-0.313-0.34-0.6-0.5-0.888c-0.029-0.056-0.063-0.111-0.092-0.167
	c-0.154-0.288-0.307-0.578-0.454-0.869c-0.026-0.054-0.053-0.107-0.08-0.16c-0.141-0.28-0.276-0.561-0.411-0.844
	c-0.18-0.379-0.314-0.679-0.447-0.981l-0.082-0.186c-0.133-0.3-0.26-0.6-0.379-0.9c-0.155-0.391-0.267-0.677-0.373-0.964
	l-0.053-0.143c-0.111-0.303-0.219-0.606-0.32-0.909c-0.021-0.061-0.041-0.122-0.062-0.182c-0.206-0.622-0.394-1.243-0.562-1.865
	l-0.051-0.185c-0.078-0.3-0.154-0.6-0.225-0.9c-0.014-0.054-0.023-0.108-0.037-0.162c-0.064-0.286-0.126-0.572-0.184-0.857
	c-0.079-0.4-0.133-0.705-0.182-1.006c-0.01-0.065-0.021-0.129-0.029-0.194c-0.047-0.3-0.09-0.6-0.127-0.9
	c-0.045-0.382-0.072-0.664-0.1-0.944c-0.005-0.051-0.01-0.1-0.013-0.152c-0.024-0.293-0.041-0.585-0.056-0.875
	c0-0.062-0.004-0.124-0.006-0.186c-0.012-0.3-0.019-0.594-0.018-0.888c0-0.937,0.066-1.873,0.2-2.8
	c0.184-1.342,0.563-2.649,1.127-3.88c0.106-0.225,0.218-0.442,0.334-0.653c2.7-4.849,8.409-5.975,15.005-2.168
	c5.918,3.417,11.1,9.975,14.031,17.028c0.193,0.464,0.38,0.93,0.553,1.4c0.255,0.688,0.486,1.381,0.7,2.073 M233.835,104.317
	c3.41,1.97,6.18,0.383,6.189-3.528c-0.226-4.332-2.512-8.292-6.15-10.654c-3.399-1.965-6.18-0.392-6.19,3.528
	C227.914,97.993,230.201,101.953,233.835,104.317"/>
<path id="Path_609" fill="#FFEEC5" d="M274.848,156.289c1.364,0.885,2.224,2.369,2.313,3.993l-0.029,9.726
	c0,1.474-1.045,2.065-2.325,1.325l-88.963-51.362c-1.366-0.887-2.225-2.374-2.31-4l0.027-9.726c0-1.463,1.044-2.056,2.325-1.316
	L274.848,156.289z"/>
<path id="Path_610" fill="#FFEEC5" d="M274.789,177.458c1.365,0.887,2.225,2.374,2.311,4l-0.027,9.729
	c0,1.472-1.044,2.055-2.326,1.314l-88.962-51.361c-1.366-0.884-2.225-2.369-2.31-3.993l0.027-9.727
	c0.005-1.472,1.045-2.065,2.326-1.325L274.789,177.458z"/>
<path id="Path_611" fill="#F7D98F" d="M235.106,181.7c2.547,1.656,4.149,4.43,4.31,7.464l-0.004,1.756
	c-0.009,2.746-1.949,3.853-4.338,2.472l-22.642-13.072c-2.55-1.654-4.154-4.43-4.315-7.467l0.006-1.756
	c0.006-2.738,1.953-3.848,4.344-2.468L235.106,181.7z"/>
<path id="Path_612" fill="#BC7159" d="M153.019,180.455c0,0-7.678,4.423-8.856,24.659c0.981,3.732,6.876,5.699,11.4,2.751
	c4.524-2.949-0.166-23.974-2.539-27.41"/>
<path id="Path_613" fill="#FF9CAF" d="M192.054,202.306c0,0,17.582-7.83,19.945-9.16c2.364-1.33,4.139-6.205,5.024-7.24
	c0.886-1.033,4.875-3.399,4.728-2.363c-0.146,1.036-2.215,2.955-2.215,2.955c0.77,1.295,1.365,2.687,1.771,4.138
	c0.295,1.625-1.921,4.876-3.1,5.763c-1.18,0.886-3.99,1.183-3.99,1.183s-14.331,9.601-16.699,9.752S191.757,206.147,192.054,202.306
	"/>
<g id="Group_384" transform="translate(-491 1681)">
	<g id="Group_383">
		<g>
			<defs>
				<rect id="SVGID_7_" x="626.466" y="-1399.485" width="71.079" height="42.233"/>
			</defs>
			<clipPath id="SVGID_8_">
				<use xlink:href="#SVGID_7_"  overflow="visible"/>
			</clipPath>
			<g id="Group_382" clip-path="url(#SVGID_8_)">
				<path id="Path_614" fill="#F2F2F2" d="M697.544-1378.369c0,11.663-15.912,21.117-35.54,21.117
					c-19.628,0-35.539-9.454-35.539-21.117s15.912-21.116,35.539-21.116C681.632-1399.485,697.544-1390.032,697.544-1378.369"/>
			</g>
		</g>
	</g>
</g>
<path id="Path_615" fill="#113C7A" d="M156.269,298.083c0,0-0.457,3.35,0.152,4.719c1.063,1.537,3.16,1.943,4.719,0.913
	c1.612-1.321,3.138-2.745,4.567-4.263c0,0,4.87-2.587,5.327-3.957s-1.218-2.588-2.588-2.283c-1.37,0.305-5.327,2.739-7.154,2.739
	S156.878,296.408,156.269,298.083"/>
<path id="Path_616" fill="#565D6D" d="M151.251,226.8c0,0,4.259,70.309,4.79,72.346c0.531,2.037,6.057,3.205,7.082-0.029
	c0.65-2.055,2.254-67.117,2.254-67.117L151.251,226.8z"/>
<path id="Path_617" fill="#113C7A" d="M170.357,302.267c-0.237,0.207-0.374,0.506-0.374,0.819c-0.009,0.968,0.036,3.122,0.582,3.961
	c1.27,1.604,3.528,2.025,5.291,0.989c1.971-1.072,8.04-5.607,9.272-6.612c0.608-0.497,1.038-1.177,1.226-1.938
	c0.131-0.521-0.132-1.061-0.623-1.276c-1.127-0.569-2.42-0.718-3.647-0.419c-2.01,0.676-4.54,2.854-7.278,2.734
	C173.16,300.541,171.576,301.161,170.357,302.267"/>
<path id="Path_618" fill="#565D6D" d="M179.758,227.56c-0.308-2.922-3.8-3.871-7.023-2.877c-6.145-0.33-15.66-0.067-15.993,4.7
	c-0.493,7.062,2.816,12.101,6.01,15.526c2.36,2.531,3.929,7.377,4.589,9.738c0.56,18.646,1.795,44.939,2.567,47.457
	c1.242,4.055,7.358,3.871,7.634-0.076C178.78,288.688,179.758,227.56,179.758,227.56"/>
<path id="Path_619" fill="#D47C61" d="M179.775,229.761c-0.722,3.607-11,5.411-17.017,4.449
	c-6.017-0.962-12.488-3.911-12.274-10.883c0,0-0.913-27.855-0.913-33.336c0.099-3.466,1.307-6.809,3.447-9.536
	c0,0,3.367-3.849,13.95-1.685c0,0,8.621,1.879,12.59,8.252c0,0,2.739,7,1.826,21.615
	C180.471,223.251,179.775,229.761,179.775,229.761"/>
<path id="Path_620" fill="#FF9CAF" d="M158.705,171.04c0,0,0.914,5.328,0,7.764c-0.152,1.219,5.175,5.327,9.894,4.262
	c2.74-0.607,2.588-1.979,2.588-1.979s-2.284-3.807-1.979-7.459s-7.308-3.35-10.5-2.588"/>
<path id="Path_621" fill="#FF9CAF" d="M176.514,160.31c0,6.935-5.623,12.558-12.558,12.558s-12.558-5.623-12.558-12.558
	c0-6.936,5.623-12.558,12.558-12.558l0,0c6.935,0,12.558,5.621,12.558,12.556C176.514,160.309,176.514,160.31,176.514,160.31"/>
<path id="Path_622" fill="#FF9CAF" d="M176.514,161.146c0,0,0.152,12.58-2.588,15.119c-2.74,2.539-6.946-2.377-13.671-3.953
	c-6.725-1.729,5.452-14.808,5.452-14.808L176.514,161.146z"/>
<path id="Path_623" fill="#D47C61" d="M175.5,184.092c0,0,2.751-0.786,5.894,3.732c3.143,4.518,7.663,10.413,9.824,11.399
	c2.16,0.986,5.107-0.98,6.287-0.98c1.179,0,4.322,5.5,3.144,8.251c-1.178,2.751-8.841,4.126-10.806,4.126
	c-1.965,0-14.736-7.662-16.5-11.984c-1.764-4.322-4.519-14.344,2.161-14.539"/>
<path id="Path_624" fill="#BC7159" d="M195.735,198.827c0.627-1.401,2.003-2.318,3.537-2.357c2.751-0.199,5.894,5.108,5.7,8.055
	c-0.194,2.947-4.52,4.521-5.5,3.733c-0.98-0.786,0.982-2.751-3.733-9.431"/>
<path id="Path_625" fill="#843837" d="M171.472,149.709c0,0,4.519,0.982,5.894,7.859c-0.589,2.947-4.715,0.589-6.287,4.519
	c-0.621,1.809-1.48,3.526-2.554,5.107l-0.983-0.394c0,0,0-3.144-1.375-3.144s-1.768,3.732-0.982,5.3
	c0.591,1.028,1.482,1.851,2.554,2.358c0,0-1.965,3.34-2.947,3.731s-4.519-0.394-5.9-0.981c-1.381-0.59-3.929-3.342-5.894-6.483
	s-3.733-8.645-2.554-12.378c0.542-2.079,1.983-3.808,3.93-4.715c1.128-1.421,2.623-2.508,4.322-3.143
	c4.383-1.41,9.181-0.524,12.771,2.358"/>
<path id="Path_626" fill="#BC7159" d="M168.673,183.563c2.742-0.41,4.039-1.502,4.039-1.502l0.921-0.655l-3.274-1.833
	c0,0-8.384-0.786-11.4-2.752l-1.572,2.228c1.603,2.644,4.383,4.351,7.466,4.584C166.346,183.778,167.617,183.722,168.673,183.563"/>
<path id="Path_627" fill="#E6E9EE" d="M321.373,81.8l-0.01,3.681c-0.004,1.557-1.27,2.816-2.826,2.812
	c-0.496-0.001-0.98-0.133-1.408-0.381l-17.362-10.069c-0.87-0.507-1.404-1.439-1.399-2.447l0.01-3.681
	c0.005-1.557,1.271-2.815,2.827-2.811c0.494,0.001,0.979,0.132,1.406,0.38l17.362,10.073c0.869,0.507,1.404,1.44,1.4,2.447"/>
<path id="Path_628" fill="#E6E9EE" d="M376.3,131.81l-0.012,3.689c-0.004,1.558-1.271,2.816-2.828,2.811
	c-0.492-0.001-0.975-0.131-1.4-0.377l-72.342-41.765c-0.875-0.505-1.412-1.439-1.409-2.449l0.01-3.689
	c0.005-1.557,1.271-2.816,2.829-2.811c0.492,0.001,0.975,0.132,1.4,0.377l72.338,41.764c0.875,0.505,1.412,1.44,1.41,2.45"/>
<g id="Group_387" transform="translate(-491 1681)" opacity="0.53">
	<g id="Group_386">
		<g>
			<defs>
				<rect id="SVGID_9_" x="789.205" y="-1557.134" width="48.164" height="33.881"/>
			</defs>
			<clipPath id="SVGID_10_">
				<use xlink:href="#SVGID_9_"  overflow="visible"/>
			</clipPath>
			<g id="Group_385" clip-path="url(#SVGID_10_)">
				<path id="Path_629" fill="#EEECEB" d="M837.369-1529.757l-0.01,3.689c-0.006,1.557-1.271,2.816-2.83,2.811
					c-0.492-0.001-0.975-0.131-1.4-0.377l-42.514-24.545c-0.875-0.505-1.412-1.439-1.41-2.45l0.012-3.689
					c0.004-1.558,1.271-2.816,2.828-2.812c0.492,0.001,0.975,0.132,1.4,0.377l42.516,24.545
					C836.833-1531.701,837.371-1530.767,837.369-1529.757"/>
			</g>
		</g>
	</g>
</g>
<path id="Path_630" fill="#EEECEB" d="M365.027,143.659l-0.012,3.689c-0.004,1.557-1.27,2.816-2.828,2.811
	c-0.492-0.001-0.975-0.131-1.4-0.377l-61.121-35.288c-0.874-0.506-1.412-1.44-1.41-2.45l0.012-3.689
	c0.004-1.557,1.27-2.815,2.827-2.811c0.492,0.001,0.976,0.132,1.401,0.378l61.121,35.288
	C364.492,141.714,365.031,142.649,365.027,143.659"/>
<path id="Path_631" fill="#EEECEB" d="M31.2,55.561v1.894c0.002,0.801,0.654,1.449,1.455,1.447c0.254,0,0.504-0.068,0.724-0.196
	l8.933-5.183c0.448-0.26,0.724-0.74,0.722-1.259l-0.005-1.894c-0.002-0.801-0.655-1.449-1.456-1.446
	c-0.254,0-0.503,0.068-0.723,0.196l-8.926,5.18c-0.449,0.26-0.724,0.74-0.723,1.259"/>
<path id="Path_632" fill="#EEECEB" d="M2.943,81.288l0.005,1.9c0.002,0.801,0.654,1.449,1.456,1.446
	c0.253-0.001,0.501-0.068,0.72-0.194l37.217-21.489c0.451-0.26,0.728-0.741,0.726-1.261l-0.006-1.9
	c-0.003-0.801-0.655-1.449-1.456-1.446c-0.253,0.001-0.501,0.068-0.72,0.194L3.668,80.028C3.218,80.288,2.942,80.769,2.943,81.288"
	/>
<g id="Group_390" transform="translate(-491 1681)" opacity="0.53">
	<g id="Group_389">
		<g>
			<defs>
				<rect id="SVGID_11_" x="509.341" y="-1603.799" width="24.78" height="17.432"/>
			</defs>
			<clipPath id="SVGID_12_">
				<use xlink:href="#SVGID_11_"  overflow="visible"/>
			</clipPath>
			<g id="Group_388" clip-path="url(#SVGID_12_)">
				<path id="Path_633" fill="#EEECEB" d="M509.341-1589.714v1.9c0.003,0.801,0.655,1.449,1.456,1.446
					c0.253-0.001,0.501-0.068,0.72-0.194l21.878-12.631c0.45-0.26,0.727-0.74,0.726-1.26l-0.006-1.9
					c-0.005-0.801-0.658-1.446-1.459-1.441c-0.251,0.001-0.499,0.069-0.716,0.194l-21.873,12.626
					C509.617-1590.714,509.34-1590.234,509.341-1589.714"/>
			</g>
		</g>
	</g>
</g>
<path id="Path_634" fill="#EEECEB" d="M8.741,87.384l0.005,1.9c0.001,0.801,0.652,1.448,1.453,1.447
	c0.254,0,0.503-0.068,0.723-0.195l31.446-18.157c0.45-0.26,0.727-0.741,0.726-1.261l-0.006-1.9
	c-0.002-0.801-0.654-1.449-1.456-1.446c-0.253,0.001-0.501,0.068-0.72,0.194L9.466,86.124C9.016,86.384,8.74,86.864,8.741,87.384"/>
<path id="Path_635" fill="#C2D4D5" d="M180.724,122.186c0,8.284-6.716,15-15,15s-15-6.716-15-15s6.716-15,15-15
	S180.724,113.902,180.724,122.186L180.724,122.186"/>
<path id="Path_636" fill="#FFFFFF" d="M164.431,129.086l-6.261-4.579l2.278-3.113l3.249,2.374l6.583-8.394l3.036,2.38
	L164.431,129.086z"/>
<path id="Path_637" fill="#EEECEB" d="M146.165,55.755c3.774,2.455,6.148,6.566,6.387,11.063c-0.012,4.087-2.892,5.729-6.429,3.687
	L87.874,36.876c-3.78-2.461-6.154-6.583-6.387-11.088c0.012-4.063,2.893-5.7,6.429-3.663L146.165,55.755z"/>
<path id="Path_638" fill="#EEECEB" d="M366.986,233.826c2.623,1.706,4.273,4.563,4.438,7.688c-0.008,2.842-2.01,3.982-4.467,2.563
	L326.468,220.7c-2.625-1.709-4.275-4.571-4.438-7.7c0.008-2.824,2.012-3.966,4.469-2.547L366.986,233.826z"/>
<path id="Path_639" fill="#F3F4F5" d="M87.857,191.726c1.5,0.864,1.5,2.265,0.018,3.127l-49.746,28.91
	c-1.696,0.865-3.704,0.865-5.4,0L2.05,206.049c-1.5-0.862-1.506-2.263-0.018-3.128l49.745-28.908c1.697-0.863,3.704-0.863,5.4,0
	L87.857,191.726z"/>
<g id="Group_393" transform="translate(-491 1681)">
	<g id="Group_392">
		<g>
			<defs>
				<rect id="SVGID_13_" x="535.348" y="-1427.711" width="73.013" height="42.292"/>
			</defs>
			<clipPath id="SVGID_14_">
				<use xlink:href="#SVGID_13_"  overflow="visible"/>
			</clipPath>
			<g id="Group_391" clip-path="url(#SVGID_14_)">
				<path id="Path_640" fill="#F2F2F2" d="M546.125-1421.517c-14.3,8.257-14.381,21.646-0.168,29.9s37.328,8.258,51.628,0
					c14.3-8.257,14.375-21.648,0.168-29.9S560.431-1429.774,546.125-1421.517"/>
			</g>
		</g>
	</g>
</g>
<path id="Path_641" fill="#113C7A" d="M72.507,278.315c0,0-6.576,1.716-9.149,1.716c-2.573,0,0,2.573,4.289,2.858
	c4.289,0.284,8.291,0.571,9.149-0.572c0.858-1.143-0.191-4.383-0.191-4.383L72.507,278.315z"/>
<path id="Path_642" fill="#113C7A" d="M90.805,272.312c0,0-6.576,1.715-9.149,1.715c-2.573,0,0,2.574,4.288,2.859
	c4.288,0.286,8.292,0.572,9.15-0.572c0.858-1.144-0.191-4.383-0.191-4.383L90.805,272.312z"/>
<path id="Path_643" fill="#5E6884" d="M92.234,201.312c0,0,2.383,65.377,2.766,72.238c-1.201,0.897-2.753,1.18-4.193,0.764
	c0,0-7.72-42.887-8.863-53.941s-3.05-14.867-3.05-14.867L92.234,201.312z"/>
<path id="Path_644" fill="#5E6884" d="M67.837,205.123c0,0-2.287,37.739,4.575,74.336c0,0,2.287,1.144,4.193-1.524
	c0,0,4.193-64.043,5.337-73.192s-11.055-1.525-14.1,0.381"/>
<path id="Path_645" fill="#5E6884" d="M78.129,234.101c0,0,3.813-10.675,7.244-16.394c3.431-5.72,2.668-14.101,2.668-14.101
	l-12.961,1.136L78.129,234.101z"/>
<path id="Path_646" fill="#FF9CAF" d="M64.93,167.813l-11.33-5.492c0,0-3.433-3.433-4.291-4.12s-6.523-2.059-7.552-1.888
	c-1.029,0.171-2.918,1.717-2.4,2.06s5.321,2.918,5.492,3.948c0.171,1.031-1.716,2.4-1.03,3.089s2.232-0.686,3.261-0.686
	c1.368,0.291,2.694,0.752,3.948,1.373l10.985,6.351L64.93,167.813z"/>
<path id="Path_647" fill="#86A1CE" d="M89.09,156.8c0,0-2.1-2.287-5.528,2.1c-3.428,4.387-6.29,10.865-11.055,10.292
	c-4.765-0.573-12.58-4.385-12.58-4.385s-3.431,2.287-2.859,5.719c0,0,11.055,8.199,18.489,7.814S91,170.336,92.711,165
	S89.09,156.8,89.09,156.8"/>
<path id="Path_648" fill="#6D84AB" d="M66.166,205.041c0.684,3.418,10.424,5.127,16.121,4.216c5.697-0.91,11.83-3.706,11.627-10.311
	c0,0,0.865-26.389,0.865-31.578c-0.093-3.283-1.237-6.45-3.265-9.034c0,0-3.19-3.646-13.215-1.6c0,0-8.168,1.779-11.927,7.816
	c0,0-2.6,6.633-1.73,20.477c0.87,13.845,1.524,20.01,1.524,20.01"/>
<path id="Path_649" fill="#FF9CAF" d="M86.126,149.415c0,0-0.865,5.047,0,7.354c0.145,1.154-4.9,5.047-9.373,4.038
	c-2.6-0.577-2.451-1.875-2.451-1.875s2.163-3.6,1.874-7.065C75.887,148.402,83.099,148.694,86.126,149.415"/>
<path id="Path_650" fill="#FF9CAF" d="M69.255,139.25c0,6.572,5.328,11.9,11.9,11.9c6.572,0,11.9-5.328,11.9-11.9
	s-5.328-11.9-11.9-11.9C74.583,127.35,69.255,132.678,69.255,139.25L69.255,139.25"/>
<path id="Path_651" fill="#FF9CAF" d="M69.255,140.042c0,0-0.144,11.917,2.452,14.322c2.596,2.405,6.58-2.252,12.951-3.745
	c6.371-1.637-5.165-14.027-5.165-14.027L69.255,140.042z"/>
<path id="Path_652" fill="#FF9CAF" d="M54.535,179.033c0,0-16.656-7.418-18.9-8.679c-2.244-1.26-3.919-5.879-4.759-6.857
	s-4.619-3.219-4.479-2.24s2.1,2.801,2.1,2.801c-0.73,1.227-1.295,2.545-1.68,3.92c-0.28,1.539,1.82,4.619,2.94,5.457
	c1.173,0.619,2.458,1,3.778,1.121c0,0,13.578,9.1,15.817,9.237c2.239,0.138,5.458-1.119,5.179-4.759"/>
<path id="Path_653" fill="#6D84AB" d="M69.362,163.951c0,0-2.1-2.287-5.528,2.1c-3.428,4.388-6.29,10.865-11.055,10.294
	c-4.765-0.572-12.58-4.385-12.58-4.385s-3.431,2.287-2.859,5.719c0,0,11.055,8.2,18.489,7.814
	c7.434-0.387,15.439-8.006,17.155-13.344C74.7,166.813,69.362,163.95,69.362,163.951"/>
<path id="Path_654" fill="#843837" d="M74.032,129.208c0,0-4.281,0.931-5.583,7.445c0.558,2.792,4.466,0.558,5.955,4.281
	c0.589,1.713,1.402,3.34,2.42,4.839l0.93-0.372c0,0,0-2.978,1.3-2.978c1.3,0,1.675,3.536,0.931,5.025
	c-0.56,0.974-1.404,1.753-2.42,2.233c0,0,1.861,3.165,2.792,3.537c0.931,0.372,4.281-0.372,5.584-0.931
	c1.303-0.559,3.722-3.164,5.583-6.142s3.537-8.189,2.42-11.726c-0.514-1.969-1.878-3.606-3.723-4.466
	c-1.068-1.347-2.484-2.376-4.094-2.978c-4.152-1.339-8.699-0.5-12.1,2.233"/>
<path id="Path_655" fill="#843837" d="M73.079,137.076c1.756,2.384,2.286,5.457,1.43,8.292c-1.43,4.86,0.571,4.86,2.573,11.15
	c2.002,6.29-3.717,13.723,1.715,22.874c5.432,9.149,20.014,8.006,26.59-1.145c6.576-9.15-3.717-15.725-4-24.017
	c-0.283-8.292,6.29-13.151-1.144-18.869c-7.434-5.718-10.578-12.009-19.727-9.435c-9.149,2.574-11.437,7.148-7.434,11.15"/>
</svg>
