<?xml version="1.0" encoding="utf-8"?>
<!-- Generator: Adobe Illustrator 15.0.0, SVG Export Plug-In . SVG Version: 6.00 Build 0)  -->
<!DOCTYPE svg PUBLIC "-//W3C//DTD SVG 1.1//EN" "http://www.w3.org/Graphics/SVG/1.1/DTD/svg11.dtd">
<svg version="1.1" id="Ebene_1" xmlns="http://www.w3.org/2000/svg" xmlns:xlink="http://www.w3.org/1999/xlink" x="0px" y="0px"
	 width="120px" height="50px" viewBox="225.426 429.396 120 50" enable-background="new 225.426 429.396 120 50"
	 xml:space="preserve">
<path d="M570.85,23.591l-88.898,4.619l-36.261,1.891l-73.289,3.851l-10.29-33.949L338.661,35.7l-34.511,1.75
	c-0.142,0-0.211,0-0.352,0l0,0l-89.04,4.619l-36.26,1.961l-52.851,2.729l-36.26,1.89l-89.11,4.621L16.8,83.37L0,181.021l82.04-4.271
	l-14,68.04l405.229-21.421l14.631-67.761l60.829-3.147l15.75-91.421h-0.068L570.85,23.591z"/>
<polygon fill="#E8BC31" points="84.421,63.421 78.051,100.87 51.94,102.271 58.31,64.751 23.591,66.569 31.43,80.851 16.871,165.69 
	41.23,164.431 47.6,126.91 73.64,125.58 67.27,163.03 91.7,161.771 108.78,62.091 "/>
<polygon fill="#E8BC31" points="143.22,84.979 193.551,82.319 197.89,57.472 112.7,61.95 120.541,76.161 105.91,161.069 
	180.81,157.149 184.871,132.44 134.541,135.101 136.711,122.291 187.181,119.631 191.52,94.99 141.051,97.581 "/>
<path fill="#E8BC31" d="M287.001,52.851l-85.189,4.41l7.84,14.279l-14.63,84.841l24.359-1.262l5.95-34.579l12.109-0.631l7.7,33.881
	l24.5-1.262l-7.28-33.879l13.37-0.7L287.001,52.851z M255.57,94.569l-26.04,1.33l2.801-15.609l26.04-1.33L255.57,94.569z"/>
<path fill="#E8BC31" d="M365.331,48.79l-6.65,0.352l-0.42-24.781l-10.01,25.341l-16.66,42.211l27.86-1.681l-44.03,59.92l36.12-1.891
	c4.689-0.279,8.68-3.852,9.59-8.75l14.98-77.42C377.51,54.95,372.121,48.44,365.331,48.79z"/>
<polygon fill="#E8BC31" points="410.411,71.05 460.741,68.392 465.081,43.54 379.89,48.021 387.73,62.3 373.171,147.142 
	448.001,143.222 452.131,118.58 401.73,121.171 403.901,108.36 454.371,105.771 458.711,81.062 408.241,83.649 "/>
<polygon fill="#E8BC31" points="549.85,63.771 554.051,38.921 469.001,43.331 476.841,57.61 468.651,105.002 518.98,102.41 
	516.81,115.149 466.48,117.812 462.211,142.521 536.97,138.601 547.68,76.44 497.349,79.03 499.52,66.36 "/>
<path fill="#E8BC31" d="M303.171,111.301l19.391-60.341l-17.568,0.91c-4.69,0.279-8.683,3.852-9.591,8.68l-15.189,77.491
	c-1.399,7.069,3.92,13.722,10.779,13.369l7.211-0.351l-3.5,27.371l12.107-27.861l17.15-39.27L303.171,111.301L303.171,111.301z"/>
<linearGradient id="SVGID_1_" gradientUnits="userSpaceOnUse" x1="426.4258" y1="-46.2451" x2="426.4258" y2="-91.3483" gradientTransform="matrix(0.699 -0.0364 -0.0389 -0.7468 -241.9812 98.1686)">
	<stop  offset="0.0017" style="stop-color:#C69536"/>
	<stop  offset="0.2806" style="stop-color:#E8BC31"/>
	<stop  offset="1" style="stop-color:#E8BC31"/>
</linearGradient>
<polygon fill="url(#SVGID_1_)" points="21.07,161.841 38.291,160.931 44.66,123.479 77.841,121.729 71.47,159.252 88.69,158.341 
	96.74,111.511 29.121,115.08 "/>
<linearGradient id="SVGID_2_" gradientUnits="userSpaceOnUse" x1="553.9082" y1="-46.2471" x2="553.9082" y2="-91.3498" gradientTransform="matrix(0.699 -0.0364 -0.0389 -0.7468 -241.9812 98.1686)">
	<stop  offset="0.0017" style="stop-color:#C69536"/>
	<stop  offset="0.2806" style="stop-color:#E8BC31"/>
	<stop  offset="1" style="stop-color:#E8BC31"/>
</linearGradient>
<polygon fill="url(#SVGID_2_)" points="110.181,157.222 177.801,153.722 180.74,136.291 130.341,138.95 133.77,118.791 
	184.24,116.2 185.85,106.892 118.23,110.392 "/>
<linearGradient id="SVGID_3_" gradientUnits="userSpaceOnUse" x1="681.3379" y1="-46.2456" x2="681.3379" y2="-91.3486" gradientTransform="matrix(0.699 -0.0364 -0.0389 -0.7468 -241.9812 98.1686)">
	<stop  offset="0.0017" style="stop-color:#C69536"/>
	<stop  offset="0.2806" style="stop-color:#E8BC31"/>
	<stop  offset="1" style="stop-color:#E8BC31"/>
</linearGradient>
<polygon fill="url(#SVGID_3_)" points="199.291,152.601 216.51,151.69 222.461,117.11 240.24,116.2 248.01,150.011 265.44,149.101 
	258.02,115.222 272.791,114.521 274.89,102.271 207.341,105.771 "/>
<linearGradient id="SVGID_4_" gradientUnits="userSpaceOnUse" x1="834.6074" y1="-46.2466" x2="834.6074" y2="-91.3493" gradientTransform="matrix(0.699 -0.0364 -0.0389 -0.7468 -241.9812 98.1686)">
	<stop  offset="0.0017" style="stop-color:#C69536"/>
	<stop  offset="0.2806" style="stop-color:#E8BC31"/>
	<stop  offset="1" style="stop-color:#E8BC31"/>
</linearGradient>
<path fill="url(#SVGID_4_)" d="M322.77,146.16l28.562-1.47c3.149-0.141,5.74-2.59,6.37-5.881l7.979-41.3l-7.56,0.421L322.77,146.16z
	"/>
<linearGradient id="SVGID_5_" gradientUnits="userSpaceOnUse" x1="936.1563" y1="-46.2446" x2="936.1563" y2="-91.3492" gradientTransform="matrix(0.699 -0.0364 -0.0389 -0.7468 -241.9812 98.1686)">
	<stop  offset="0.0017" style="stop-color:#C69536"/>
	<stop  offset="0.2806" style="stop-color:#E8BC31"/>
	<stop  offset="1" style="stop-color:#E8BC31"/>
</linearGradient>
<polygon fill="url(#SVGID_5_)" points="377.371,143.291 444.991,139.791 447.93,122.36 397.599,125.021 400.961,104.931 
	451.43,102.271 453.041,92.96 385.421,96.46 "/>
<linearGradient id="SVGID_6_" gradientUnits="userSpaceOnUse" x1="1063.5859" y1="-46.2466" x2="1063.5859" y2="-91.3486" gradientTransform="matrix(0.699 -0.0364 -0.0389 -0.7468 -241.9812 98.1686)">
	<stop  offset="0.0017" style="stop-color:#C69536"/>
	<stop  offset="0.2806" style="stop-color:#E8BC31"/>
	<stop  offset="1" style="stop-color:#E8BC31"/>
</linearGradient>
<polygon fill="url(#SVGID_6_)" points="474.461,91.841 472.849,101.149 523.18,98.562 519.751,118.649 469.421,121.24 
	466.48,138.671 534.031,135.101 542.081,88.341 "/>
<linearGradient id="SVGID_7_" gradientUnits="userSpaceOnUse" x1="772.3301" y1="-46.2451" x2="772.3301" y2="-91.3488" gradientTransform="matrix(0.699 -0.0364 -0.0389 -0.7468 -241.9812 98.1686)">
	<stop  offset="0.0017" style="stop-color:#C69536"/>
	<stop  offset="0.2806" style="stop-color:#E8BC31"/>
	<stop  offset="1" style="stop-color:#E8BC31"/>
</linearGradient>
<path fill="url(#SVGID_7_)" d="M283.501,138.812c-0.489,2.31,0.142,4.688,1.608,6.51c1.399,1.682,3.432,2.59,5.531,2.521
	l11.408-0.63l-0.91,7.42l17.29-39.689H298.2l4.55-14.141l-11.971,0.631L283.501,138.812z"/>
<linearGradient id="SVGID_8_" gradientUnits="userSpaceOnUse" x1="498.3848" y1="-207.2451" x2="498.3848" y2="-141.0861" gradientTransform="matrix(0.699 -0.0364 -0.0389 -0.7468 -241.9812 98.1686)">
	<stop  offset="0" style="stop-color:#C69536"/>
	<stop  offset="1" style="stop-color:#E8BC31"/>
</linearGradient>
<polygon fill="url(#SVGID_8_)" points="88.9,228.69 97.301,192.291 94.36,188.021 137.131,185.78 135.381,193.2 106.89,194.74 
	100.871,220.78 119.07,219.87 121.171,210.49 114.31,210.841 116.06,203.421 133.28,202.511 127.61,226.66 "/>
<linearGradient id="SVGID_9_" gradientUnits="userSpaceOnUse" x1="570.4883" y1="-207.2451" x2="570.4883" y2="-141.0862" gradientTransform="matrix(0.699 -0.0364 -0.0389 -0.7468 -241.9812 98.1686)">
	<stop  offset="0" style="stop-color:#C69536"/>
	<stop  offset="1" style="stop-color:#E8BC31"/>
</linearGradient>
<path fill="url(#SVGID_9_)" d="M166.74,224.631l-4.199-15.052l-9.45,0.49l-3.569,15.471l-10.29,0.561l8.47-36.399l-2.939-4.271
	l42.841-2.24l-5.95,25.48l-8.399,0.42l3.989,15.051L166.74,224.631z M154.77,202.722l18.271-0.98l2.59-10.641l-18.271,0.979
	L154.77,202.722z"/>
<linearGradient id="SVGID_10_" gradientUnits="userSpaceOnUse" x1="642.5938" y1="-207.2451" x2="642.5938" y2="-141.0873" gradientTransform="matrix(0.699 -0.0364 -0.0389 -0.7468 -241.9812 98.1686)">
	<stop  offset="0" style="stop-color:#C69536"/>
	<stop  offset="1" style="stop-color:#E8BC31"/>
</linearGradient>
<path fill="url(#SVGID_10_)" d="M189.631,223.44l8.471-36.399l-2.939-4.271l42.84-2.24l-9.45,40.88L189.631,223.44z M201.6,215.53
	l18.271-0.979l6.09-26.11l-18.271,0.98L201.6,215.53z"/>
<linearGradient id="SVGID_11_" gradientUnits="userSpaceOnUse" x1="714.7441" y1="-207.2437" x2="714.7441" y2="-141.0871" gradientTransform="matrix(0.699 -0.0364 -0.0389 -0.7468 -241.9812 98.1686)">
	<stop  offset="0" style="stop-color:#C69536"/>
	<stop  offset="1" style="stop-color:#E8BC31"/>
</linearGradient>
<polygon fill="url(#SVGID_11_)" points="240.1,220.851 248.57,184.45 245.56,180.11 259.841,179.41 252.07,212.94 270.341,211.961 
	278.11,178.431 288.4,177.87 278.95,218.819 "/>
<linearGradient id="SVGID_12_" gradientUnits="userSpaceOnUse" x1="786.999" y1="-207.2451" x2="786.999" y2="-141.0873" gradientTransform="matrix(0.699 -0.0364 -0.0389 -0.7468 -241.9812 98.1686)">
	<stop  offset="0" style="stop-color:#C69536"/>
	<stop  offset="0.9879" style="stop-color:#E8BC31"/>
</linearGradient>
<path fill="url(#SVGID_12_)" d="M290.57,218.19l8.471-36.399l-2.939-4.271l42.842-2.24l-6.16,26.602l-28.563,1.471l-3.289,14.279
	L290.57,218.19z M305.9,196.002l18.271-0.979l2.73-11.83l-18.271,0.979L305.9,196.002z"/>
<linearGradient id="SVGID_13_" gradientUnits="userSpaceOnUse" x1="900.3555" y1="-207.2427" x2="900.3555" y2="-141.0877" gradientTransform="matrix(0.699 -0.0364 -0.0389 -0.7468 -241.9812 98.1686)">
	<stop  offset="0" style="stop-color:#C69536"/>
	<stop  offset="1" style="stop-color:#E8BC31"/>
</linearGradient>
<path fill="url(#SVGID_13_)" d="M398.371,212.591l3.29-14.279l-18.271,0.979l-3.29,14.279l-10.289,0.562l8.472-36.399l-2.94-4.271
	l42.84-2.239l-9.448,40.879L398.371,212.591z M385.14,191.87l18.271-0.979l2.729-11.83l-18.27,0.979L385.14,191.87z"/>
<linearGradient id="SVGID_14_" gradientUnits="userSpaceOnUse" x1="972.3623" y1="-207.2441" x2="972.3623" y2="-141.0869" gradientTransform="matrix(0.699 -0.0364 -0.0389 -0.7468 -241.9812 98.1686)">
	<stop  offset="0" style="stop-color:#C69536"/>
	<stop  offset="1" style="stop-color:#E8BC31"/>
</linearGradient>
<polygon fill="url(#SVGID_14_)" points="420.211,211.472 428.68,175.069 425.741,170.729 468.44,168.49 466.76,175.979 
	438.27,177.45 432.18,203.562 450.451,202.58 452.551,193.2 445.69,193.551 447.371,186.2 464.591,185.291 458.991,209.44 "/>
<g>
	<path d="M343.512,434.287l-18.092,0.94l-7.379,0.385l-14.914,0.784l-2.094-6.909l-4.773,7.265l-7.023,0.356
		c-0.029,0-0.043,0-0.072,0l0,0l-18.12,0.939l-7.379,0.399l-10.755,0.556l-7.379,0.385l-18.135,0.94l3.363,6.125l-3.419,19.872
		l16.696-0.868l-2.849,13.847l82.468-4.359l2.977-13.79l12.379-0.64l3.205-18.606h-0.014L343.512,434.287z"/>
	<polygon fill="#E8BC31" points="244.52,442.394 243.224,450.015 237.91,450.3 239.206,442.664 232.141,443.034 233.735,445.94 
		230.772,463.206 235.73,462.95 237.026,455.314 242.326,455.044 241.029,462.665 246.001,462.408 249.477,442.123 	"/>
	<polygon fill="#E8BC31" points="256.486,446.78 266.729,446.239 267.612,441.183 250.275,442.094 251.871,444.986 248.893,462.266 
		264.136,461.469 264.962,456.439 254.719,456.981 255.162,454.375 265.432,453.832 266.315,448.817 256.044,449.346 	"/>
	<path fill="#E8BC31" d="M285.747,440.242l-17.336,0.898l1.595,2.905l-2.978,17.266l4.958-0.256l1.211-7.038l2.464-0.128
		l1.567,6.895l4.986-0.256l-1.481-6.895l2.721-0.144L285.747,440.242z M279.35,448.732l-5.299,0.271l0.57-3.177l5.299-0.271
		L279.35,448.732z"/>
	<path fill="#E8BC31" d="M301.688,439.637l-1.354,0.071l-0.086-5.043l-2.037,5.157l-3.391,8.591l5.67-0.343l-8.959,12.194
		l7.35-0.385c0.955-0.057,1.768-0.784,1.951-1.78l3.049-15.756C304.166,440.891,303.07,439.565,301.688,439.637z"/>
	<polygon fill="#E8BC31" points="310.861,443.945 321.104,443.404 321.986,438.348 304.65,439.26 306.246,442.165 303.283,459.431 
		318.512,458.634 319.352,453.619 309.096,454.146 309.537,451.539 319.809,451.013 320.691,445.984 310.42,446.511 	"/>
	<polygon fill="#E8BC31" points="339.238,442.464 340.094,437.408 322.785,438.306 324.381,441.211 322.715,450.855 
		332.957,450.328 332.514,452.92 322.271,453.462 321.404,458.49 336.617,457.693 338.797,445.044 328.555,445.57 328.996,442.992 	
		"/>
	<path fill="#E8BC31" d="M289.037,452.138l3.947-12.28l-3.576,0.185c-0.955,0.058-1.768,0.784-1.951,1.768l-3.092,15.77
		c-0.285,1.439,0.798,2.792,2.194,2.722l1.469-0.072l-0.713,5.57l2.463-5.67l3.49-7.991H289.037L289.037,452.138z"/>
	
		<linearGradient id="SVGID_15_" gradientUnits="userSpaceOnUse" x1="660.0146" y1="-507.7529" x2="660.0146" y2="-516.9316" gradientTransform="matrix(0.699 -0.0364 -0.0389 -0.7468 -241.9812 98.1686)">
		<stop  offset="0.0017" style="stop-color:#C69536"/>
		<stop  offset="0.2806" style="stop-color:#E8BC31"/>
		<stop  offset="1" style="stop-color:#E8BC31"/>
	</linearGradient>
	<polygon fill="url(#SVGID_15_)" points="231.627,462.423 235.132,462.237 236.428,454.616 243.181,454.26 241.884,461.896 
		245.388,461.71 247.027,452.18 233.266,452.906 	"/>
	
		<linearGradient id="SVGID_16_" gradientUnits="userSpaceOnUse" x1="685.957" y1="-507.7549" x2="685.957" y2="-516.9327" gradientTransform="matrix(0.699 -0.0364 -0.0389 -0.7468 -241.9812 98.1686)">
		<stop  offset="0.0017" style="stop-color:#C69536"/>
		<stop  offset="0.2806" style="stop-color:#E8BC31"/>
		<stop  offset="1" style="stop-color:#E8BC31"/>
	</linearGradient>
	<polygon fill="url(#SVGID_16_)" points="249.762,461.482 263.523,460.771 264.122,457.223 253.865,457.764 254.563,453.661 
		264.834,453.135 265.161,451.24 251.4,451.953 	"/>
	
		<linearGradient id="SVGID_17_" gradientUnits="userSpaceOnUse" x1="711.8906" y1="-507.7539" x2="711.8906" y2="-516.9319" gradientTransform="matrix(0.699 -0.0364 -0.0389 -0.7468 -241.9812 98.1686)">
		<stop  offset="0.0017" style="stop-color:#C69536"/>
		<stop  offset="0.2806" style="stop-color:#E8BC31"/>
		<stop  offset="1" style="stop-color:#E8BC31"/>
	</linearGradient>
	<polygon fill="url(#SVGID_17_)" points="267.897,460.542 271.401,460.356 272.612,453.319 276.23,453.135 277.812,460.015 
		281.359,459.83 279.849,452.936 282.855,452.793 283.282,450.3 269.535,451.013 	"/>
	
		<linearGradient id="SVGID_18_" gradientUnits="userSpaceOnUse" x1="743.082" y1="-507.7534" x2="743.082" y2="-516.9321" gradientTransform="matrix(0.699 -0.0364 -0.0389 -0.7468 -241.9812 98.1686)">
		<stop  offset="0.0017" style="stop-color:#C69536"/>
		<stop  offset="0.2806" style="stop-color:#E8BC31"/>
		<stop  offset="1" style="stop-color:#E8BC31"/>
	</linearGradient>
	<path fill="url(#SVGID_18_)" d="M293.025,459.232l5.813-0.3c0.641-0.029,1.168-0.527,1.297-1.196l1.623-8.405l-1.537,0.085
		L293.025,459.232z"/>
	
		<linearGradient id="SVGID_19_" gradientUnits="userSpaceOnUse" x1="763.748" y1="-507.7534" x2="763.748" y2="-516.9315" gradientTransform="matrix(0.699 -0.0364 -0.0389 -0.7468 -241.9812 98.1686)">
		<stop  offset="0.0017" style="stop-color:#C69536"/>
		<stop  offset="0.2806" style="stop-color:#E8BC31"/>
		<stop  offset="1" style="stop-color:#E8BC31"/>
	</linearGradient>
	<polygon fill="url(#SVGID_19_)" points="304.137,458.648 317.898,457.935 318.496,454.388 308.254,454.93 308.938,450.842 
		319.209,450.3 319.537,448.405 305.775,449.117 	"/>
	
		<linearGradient id="SVGID_20_" gradientUnits="userSpaceOnUse" x1="789.6797" y1="-507.7544" x2="789.6797" y2="-516.9331" gradientTransform="matrix(0.699 -0.0364 -0.0389 -0.7468 -241.9812 98.1686)">
		<stop  offset="0.0017" style="stop-color:#C69536"/>
		<stop  offset="0.2806" style="stop-color:#E8BC31"/>
		<stop  offset="1" style="stop-color:#E8BC31"/>
	</linearGradient>
	<polygon fill="url(#SVGID_20_)" points="323.896,448.178 323.568,450.072 333.811,449.545 333.113,453.634 322.871,454.16 
		322.271,457.708 336.02,456.981 337.656,447.465 	"/>
	
		<linearGradient id="SVGID_21_" gradientUnits="userSpaceOnUse" x1="730.4082" y1="-507.7534" x2="730.4082" y2="-516.9317" gradientTransform="matrix(0.699 -0.0364 -0.0389 -0.7468 -241.9812 98.1686)">
		<stop  offset="0.0017" style="stop-color:#C69536"/>
		<stop  offset="0.2806" style="stop-color:#E8BC31"/>
		<stop  offset="1" style="stop-color:#E8BC31"/>
	</linearGradient>
	<path fill="url(#SVGID_21_)" d="M285.034,457.736c-0.1,0.47,0.029,0.953,0.328,1.324c0.284,0.343,0.699,0.528,1.126,0.514
		l2.32-0.129l-0.186,1.51l3.52-8.076h-4.117l0.926-2.878l-2.436,0.128L285.034,457.736z"/>
	
		<linearGradient id="SVGID_22_" gradientUnits="userSpaceOnUse" x1="674.6592" y1="-540.5186" x2="674.6592" y2="-527.0548" gradientTransform="matrix(0.699 -0.0364 -0.0389 -0.7468 -241.9812 98.1686)">
		<stop  offset="0" style="stop-color:#C69536"/>
		<stop  offset="1" style="stop-color:#E8BC31"/>
	</linearGradient>
	<polygon fill="url(#SVGID_22_)" points="245.431,476.027 247.141,468.619 246.542,467.751 255.247,467.295 254.891,468.805 
		249.093,469.118 247.868,474.417 251.571,474.232 251.999,472.323 250.603,472.395 250.959,470.885 254.463,470.699 
		253.309,475.614 	"/>
	
		<linearGradient id="SVGID_23_" gradientUnits="userSpaceOnUse" x1="689.334" y1="-540.5181" x2="689.334" y2="-527.0545" gradientTransform="matrix(0.699 -0.0364 -0.0389 -0.7468 -241.9812 98.1686)">
		<stop  offset="0" style="stop-color:#C69536"/>
		<stop  offset="1" style="stop-color:#E8BC31"/>
	</linearGradient>
	<path fill="url(#SVGID_23_)" d="M261.272,475.201l-0.854-3.063l-1.923,0.101l-0.726,3.148l-2.094,0.113l1.724-7.407l-0.599-0.869
		l8.719-0.456l-1.211,5.186l-1.709,0.086l0.812,3.063L261.272,475.201z M258.836,470.742l3.718-0.199l0.527-2.166l-3.718,0.199
		L258.836,470.742z"/>
	
		<linearGradient id="SVGID_24_" gradientUnits="userSpaceOnUse" x1="704.0068" y1="-540.5181" x2="704.0068" y2="-527.0551" gradientTransform="matrix(0.699 -0.0364 -0.0389 -0.7468 -241.9812 98.1686)">
		<stop  offset="0" style="stop-color:#C69536"/>
		<stop  offset="1" style="stop-color:#E8BC31"/>
	</linearGradient>
	<path fill="url(#SVGID_24_)" d="M265.931,474.959l1.725-7.407l-0.599-0.869l8.719-0.456l-1.923,8.318L265.931,474.959z
		 M268.367,473.35l3.718-0.199l1.24-5.314l-3.718,0.199L268.367,473.35z"/>
	
		<linearGradient id="SVGID_25_" gradientUnits="userSpaceOnUse" x1="718.6895" y1="-540.5181" x2="718.6895" y2="-527.0542" gradientTransform="matrix(0.699 -0.0364 -0.0389 -0.7468 -241.9812 98.1686)">
		<stop  offset="0" style="stop-color:#C69536"/>
		<stop  offset="1" style="stop-color:#E8BC31"/>
	</linearGradient>
	<polygon fill="url(#SVGID_25_)" points="276.202,474.432 277.925,467.024 277.313,466.141 280.219,465.998 278.638,472.822 
		282.356,472.623 283.937,465.799 286.031,465.685 284.108,474.019 	"/>
	
		<linearGradient id="SVGID_26_" gradientUnits="userSpaceOnUse" x1="733.3936" y1="-540.5186" x2="733.3936" y2="-527.055" gradientTransform="matrix(0.699 -0.0364 -0.0389 -0.7468 -241.9812 98.1686)">
		<stop  offset="0" style="stop-color:#C69536"/>
		<stop  offset="0.9879" style="stop-color:#E8BC31"/>
	</linearGradient>
	<path fill="url(#SVGID_26_)" d="M286.473,473.891l1.725-7.407l-0.598-0.87l8.717-0.455l-1.252,5.414l-5.814,0.299l-0.668,2.906
		L286.473,473.891z M289.592,469.375l3.719-0.199l0.557-2.408l-3.719,0.2L289.592,469.375z"/>
	
		<linearGradient id="SVGID_27_" gradientUnits="userSpaceOnUse" x1="756.4629" y1="-540.5181" x2="756.4629" y2="-527.0553" gradientTransform="matrix(0.699 -0.0364 -0.0389 -0.7468 -241.9812 98.1686)">
		<stop  offset="0" style="stop-color:#C69536"/>
		<stop  offset="1" style="stop-color:#E8BC31"/>
	</linearGradient>
	<path fill="url(#SVGID_27_)" d="M308.41,472.751l0.672-2.905l-3.719,0.199l-0.67,2.905l-2.096,0.114l1.725-7.408l-0.598-0.868
		l8.719-0.456l-1.924,8.319L308.41,472.751z M305.719,468.534l3.719-0.199l0.555-2.407l-3.717,0.199L305.719,468.534z"/>
	
		<linearGradient id="SVGID_28_" gradientUnits="userSpaceOnUse" x1="771.1172" y1="-540.5171" x2="771.1172" y2="-527.0553" gradientTransform="matrix(0.699 -0.0364 -0.0389 -0.7468 -241.9812 98.1686)">
		<stop  offset="0" style="stop-color:#C69536"/>
		<stop  offset="1" style="stop-color:#E8BC31"/>
	</linearGradient>
	<polygon fill="url(#SVGID_28_)" points="312.855,472.522 314.58,465.115 313.98,464.232 322.672,463.776 322.33,465.3 
		316.531,465.6 315.291,470.913 319.01,470.714 319.438,468.805 318.041,468.876 318.383,467.38 321.887,467.195 320.748,472.109 	
		"/>
</g>
<rect x="-225.606" y="13.189" fill="#C69536" width="100.063" height="100.061"/>
<rect x="-225.606" y="142.185" fill="#E8BC31" width="100.063" height="100.061"/>
</svg>
